<?xml version="1.0" standalone="no"?>
<!DOCTYPE svg PUBLIC "-//W3C//DTD SVG 20010904//EN"
 "http://www.w3.org/TR/2001/REC-SVG-20010904/DTD/svg10.dtd">
<svg version="1.0" xmlns="http://www.w3.org/2000/svg"
 width="32.000000pt" height="32.000000pt" viewBox="0 0 32.000000 32.000000"
 preserveAspectRatio="xMidYMid meet">

<g transform="translate(0.000000,32.000000) scale(0.100000,-0.100000)"
fill="#000000" stroke="none">
<path d="M20 245 c5 -6 7 -21 3 -33 -3 -12 0 -29 7 -37 8 -10 9 -15 2 -15 -18
0 -34 -40 -28 -66 9 -34 51 -49 98 -34 21 6 42 20 48 30 13 24 12 24 -28 4
-44 -21 -72 -11 -72 27 0 24 4 29 25 29 30 0 33 20 5 27 -11 3 -20 10 -20 15
0 6 11 8 23 4 30 -7 60 14 55 40 -3 16 -12 19 -65 19 -44 1 -59 -2 -53 -10z
m90 -25 c0 -13 -11 -13 -30 0 -12 8 -11 10 8 10 12 0 22 -4 22 -10z"/>
<path d="M227 249 c-9 -5 -21 -7 -26 -4 -6 3 -10 -3 -10 -12 1 -10 -6 -37 -15
-61 -26 -70 2 -122 65 -122 31 0 79 35 79 56 0 12 -5 11 -26 -5 -49 -38 -84
-22 -84 38 0 49 12 65 42 58 15 -4 33 0 46 9 47 33 -19 73 -71 43z m58 -29
c-3 -5 -12 -10 -20 -10 -8 0 -17 5 -20 10 -4 6 5 10 20 10 15 0 24 -4 20 -10z"/>
</g>
</svg>
